<mxfile host="65bd71144e">
    <diagram id="XDSdoA32Q4-sdETE-9Pw" name="Services">
        <mxGraphModel dx="648" dy="396" grid="1" gridSize="10" guides="1" tooltips="1" connect="1" arrows="1" fold="1" page="1" pageScale="1" pageWidth="1169" pageHeight="827" math="0" shadow="0">
            <root>
                <mxCell id="0"/>
                <mxCell id="1" parent="0"/>
                <mxCell id="14" style="edgeStyle=none;html=1;exitX=1;exitY=0.5;exitDx=0;exitDy=0;" parent="1" source="2" target="13" edge="1">
                    <mxGeometry relative="1" as="geometry"/>
                </mxCell>
                <mxCell id="2" value="Auth Microsservice" style="rounded=0;whiteSpace=wrap;html=1;strokeColor=#00FF00;" parent="1" vertex="1">
                    <mxGeometry x="535" y="450" width="120" height="60" as="geometry"/>
                </mxCell>
                <mxCell id="23" value="" style="edgeStyle=none;html=1;" parent="1" source="3" edge="1">
                    <mxGeometry relative="1" as="geometry">
                        <mxPoint x="415" y="412" as="targetPoint"/>
                    </mxGeometry>
                </mxCell>
                <mxCell id="3" value="Intents.CORE&lt;br&gt;Microsservice" style="rounded=0;whiteSpace=wrap;html=1;strokeColor=#FF0000;" parent="1" vertex="1">
                    <mxGeometry x="355" y="321.07" width="120" height="60" as="geometry"/>
                </mxCell>
                <mxCell id="19" value="Token" style="edgeStyle=none;html=1;" parent="1" source="4" target="18" edge="1">
                    <mxGeometry relative="1" as="geometry"/>
                </mxCell>
                <mxCell id="4" value="Frontend" style="rounded=0;whiteSpace=wrap;html=1;strokeColor=#FFFF33;" parent="1" vertex="1">
                    <mxGeometry x="535" y="232" width="120" height="60" as="geometry"/>
                </mxCell>
                <mxCell id="26" value="" style="edgeStyle=none;html=1;" parent="1" source="13" target="25" edge="1">
                    <mxGeometry relative="1" as="geometry"/>
                </mxCell>
                <mxCell id="13" value="Valida credenciais" style="shape=step;perimeter=stepPerimeter;whiteSpace=wrap;html=1;fixedSize=1;strokeColor=#00FF00;" parent="1" vertex="1">
                    <mxGeometry x="695" y="450" width="150" height="60" as="geometry"/>
                </mxCell>
                <mxCell id="17" value="Error de autenticação" style="rounded=1;whiteSpace=wrap;html=1;strokeColor=#6F0000;fillColor=#FF0000;fontColor=#ffffff;" parent="1" vertex="1">
                    <mxGeometry x="851" y="232" width="120" height="60" as="geometry"/>
                </mxCell>
                <mxCell id="21" value="" style="edgeStyle=none;html=1;" parent="1" source="18" target="3" edge="1">
                    <mxGeometry relative="1" as="geometry">
                        <mxPoint x="415" y="321.06999999999994" as="targetPoint"/>
                    </mxGeometry>
                </mxCell>
                <mxCell id="18" value="Requisita&lt;br&gt;processamento&lt;br&gt;de frases/intenções" style="whiteSpace=wrap;html=1;strokeColor=#FFFF33;rounded=0;" parent="1" vertex="1">
                    <mxGeometry x="355" y="232" width="120" height="60" as="geometry"/>
                </mxCell>
                <mxCell id="27" value="Não" style="edgeStyle=none;html=1;exitX=1;exitY=0;exitDx=0;exitDy=0;entryX=0;entryY=0.75;entryDx=0;entryDy=0;" parent="1" source="25" target="17" edge="1">
                    <mxGeometry relative="1" as="geometry"/>
                </mxCell>
                <mxCell id="29" value="Devolve token" style="edgeStyle=none;html=1;exitX=0;exitY=0;exitDx=0;exitDy=0;" parent="1" source="25" edge="1">
                    <mxGeometry relative="1" as="geometry">
                        <mxPoint x="658" y="268" as="targetPoint"/>
                    </mxGeometry>
                </mxCell>
                <mxCell id="25" value="Credencial&lt;br&gt;valida?" style="rhombus;whiteSpace=wrap;html=1;strokeColor=#00FF00;" parent="1" vertex="1">
                    <mxGeometry x="730" y="301.07" width="80" height="80" as="geometry"/>
                </mxCell>
                <mxCell id="31" value="Não" style="edgeStyle=none;html=1;exitX=1;exitY=1;exitDx=0;exitDy=0;entryX=0.5;entryY=0;entryDx=0;entryDy=0;" parent="1" source="30" target="32" edge="1">
                    <mxGeometry relative="1" as="geometry">
                        <mxPoint x="488" y="528" as="targetPoint"/>
                    </mxGeometry>
                </mxCell>
                <mxCell id="35" value="Sim" style="edgeStyle=none;html=1;exitX=0;exitY=1;exitDx=0;exitDy=0;entryX=0.685;entryY=-0.019;entryDx=0;entryDy=0;entryPerimeter=0;" parent="1" source="30" target="34" edge="1">
                    <mxGeometry relative="1" as="geometry"/>
                </mxCell>
                <mxCell id="30" value="Chave&lt;br&gt;API&lt;br&gt;Dispõe&lt;br&gt;Limite?" style="rhombus;whiteSpace=wrap;html=1;strokeColor=#FF0000;" parent="1" vertex="1">
                    <mxGeometry x="365" y="412" width="100" height="96" as="geometry"/>
                </mxCell>
                <mxCell id="32" value="Requisição Inválida" style="rounded=1;whiteSpace=wrap;html=1;strokeColor=#6F0000;fillColor=#FF0000;fontColor=#ffffff;" parent="1" vertex="1">
                    <mxGeometry x="448" y="533" width="120" height="60" as="geometry"/>
                </mxCell>
                <mxCell id="37" style="edgeStyle=none;html=1;exitX=0.5;exitY=0;exitDx=0;exitDy=0;entryX=0.479;entryY=0.932;entryDx=0;entryDy=0;entryPerimeter=0;" parent="1" source="34" target="36" edge="1">
                    <mxGeometry relative="1" as="geometry"/>
                </mxCell>
                <mxCell id="34" value="Processamento&lt;br&gt;de&lt;br&gt;frase/intenção" style="shape=process;whiteSpace=wrap;html=1;backgroundOutline=1;strokeColor=#FF0000;fillColor=none;" parent="1" vertex="1">
                    <mxGeometry x="245" y="548" width="120" height="60" as="geometry"/>
                </mxCell>
                <mxCell id="38" style="edgeStyle=none;html=1;exitX=0.5;exitY=0;exitDx=0;exitDy=0;" parent="1" source="36" edge="1">
                    <mxGeometry relative="1" as="geometry">
                        <mxPoint x="595" y="228" as="targetPoint"/>
                        <Array as="points">
                            <mxPoint x="288" y="208"/>
                            <mxPoint x="595" y="208"/>
                        </Array>
                    </mxGeometry>
                </mxCell>
                <mxCell id="36" value="Resultado do&lt;br&gt;processo" style="shape=document;whiteSpace=wrap;html=1;boundedLbl=1;strokeColor=#FF0000;fillColor=none;" parent="1" vertex="1">
                    <mxGeometry x="228" y="412" width="120" height="80" as="geometry"/>
                </mxCell>
                <mxCell id="40" style="edgeStyle=none;html=1;entryX=0.75;entryY=0;entryDx=0;entryDy=0;" parent="1" source="39" target="4" edge="1">
                    <mxGeometry relative="1" as="geometry"/>
                </mxCell>
                <mxCell id="39" value="Usuário" style="shape=actor;whiteSpace=wrap;html=1;strokeColor=#005700;fillColor=#008a00;fontColor=#ffffff;" parent="1" vertex="1">
                    <mxGeometry x="730" y="100" width="40" height="60" as="geometry"/>
                </mxCell>
                <mxCell id="42" value="Sim" style="edgeStyle=none;html=1;" parent="1" source="41" target="4" edge="1">
                    <mxGeometry relative="1" as="geometry">
                        <mxPoint x="490" y="300" as="targetPoint"/>
                    </mxGeometry>
                </mxCell>
                <mxCell id="43" value="Não" style="edgeStyle=none;html=1;exitX=0.5;exitY=1;exitDx=0;exitDy=0;entryX=0.5;entryY=0;entryDx=0;entryDy=0;" parent="1" edge="1">
                    <mxGeometry x="-0.0526" relative="1" as="geometry">
                        <mxPoint x="595" y="412" as="sourcePoint"/>
                        <mxPoint x="595" y="450" as="targetPoint"/>
                        <mxPoint as="offset"/>
                    </mxGeometry>
                </mxCell>
                <mxCell id="41" value="Autenticado?" style="rhombus;whiteSpace=wrap;html=1;strokeColor=#FFFF33;fillColor=none;" parent="1" vertex="1">
                    <mxGeometry x="555" y="332" width="80" height="80" as="geometry"/>
                </mxCell>
            </root>
        </mxGraphModel>
    </diagram>
    <diagram id="oVuXQNfabWuz02V_eeW-" name="Limits">
        <mxGraphModel dx="820" dy="516" grid="1" gridSize="10" guides="1" tooltips="1" connect="1" arrows="1" fold="1" page="1" pageScale="1" pageWidth="827" pageHeight="1169" math="0" shadow="0">
            <root>
                <mxCell id="8AJrhQcKqjRluQ4ktrU2-0"/>
                <mxCell id="8AJrhQcKqjRluQ4ktrU2-1" parent="8AJrhQcKqjRluQ4ktrU2-0"/>
                <mxCell id="gEINEeFETgo3wGrlNkR9-2" style="edgeStyle=none;html=1;" parent="8AJrhQcKqjRluQ4ktrU2-1" source="8AJrhQcKqjRluQ4ktrU2-2" target="8AJrhQcKqjRluQ4ktrU2-3" edge="1">
                    <mxGeometry relative="1" as="geometry"/>
                </mxCell>
                <mxCell id="8AJrhQcKqjRluQ4ktrU2-2" value="Usuário" style="shape=actor;whiteSpace=wrap;html=1;fillColor=#008a00;fontColor=#ffffff;strokeColor=#005700;" parent="8AJrhQcKqjRluQ4ktrU2-1" vertex="1">
                    <mxGeometry x="439" y="218" width="40" height="60" as="geometry"/>
                </mxCell>
                <mxCell id="gEINEeFETgo3wGrlNkR9-3" style="edgeStyle=none;html=1;entryX=1;entryY=0.75;entryDx=0;entryDy=0;" parent="8AJrhQcKqjRluQ4ktrU2-1" source="8AJrhQcKqjRluQ4ktrU2-3" target="8AJrhQcKqjRluQ4ktrU2-2" edge="1">
                    <mxGeometry relative="1" as="geometry">
                        <mxPoint x="529" y="248" as="targetPoint"/>
                        <Array as="points">
                            <mxPoint x="609" y="388"/>
                            <mxPoint x="609" y="263"/>
                        </Array>
                    </mxGeometry>
                </mxCell>
                <mxCell id="gEINEeFETgo3wGrlNkR9-6" style="edgeStyle=none;html=1;" parent="8AJrhQcKqjRluQ4ktrU2-1" source="8AJrhQcKqjRluQ4ktrU2-3" target="gEINEeFETgo3wGrlNkR9-4" edge="1">
                    <mxGeometry relative="1" as="geometry"/>
                </mxCell>
                <mxCell id="8AJrhQcKqjRluQ4ktrU2-3" value="Frontend" style="rounded=0;whiteSpace=wrap;html=1;strokeColor=#FFFF33;" parent="8AJrhQcKqjRluQ4ktrU2-1" vertex="1">
                    <mxGeometry x="399" y="358" width="120" height="60" as="geometry"/>
                </mxCell>
                <mxCell id="gEINEeFETgo3wGrlNkR9-16" style="edgeStyle=none;html=1;" parent="8AJrhQcKqjRluQ4ktrU2-1" source="gEINEeFETgo3wGrlNkR9-0" target="gEINEeFETgo3wGrlNkR9-15" edge="1">
                    <mxGeometry relative="1" as="geometry"/>
                </mxCell>
                <mxCell id="gEINEeFETgo3wGrlNkR9-0" value="NLP-Core&lt;br&gt;" style="rounded=0;whiteSpace=wrap;html=1;strokeColor=#FF0000;" parent="8AJrhQcKqjRluQ4ktrU2-1" vertex="1">
                    <mxGeometry x="279" y="588" width="120" height="60" as="geometry"/>
                </mxCell>
                <mxCell id="gEINEeFETgo3wGrlNkR9-7" value="Apos autenticar com&lt;br&gt;sucesso" style="edgeStyle=none;html=1;entryX=0.831;entryY=1.041;entryDx=0;entryDy=0;entryPerimeter=0;" parent="8AJrhQcKqjRluQ4ktrU2-1" source="gEINEeFETgo3wGrlNkR9-1" target="8AJrhQcKqjRluQ4ktrU2-3" edge="1">
                    <mxGeometry relative="1" as="geometry">
                        <mxPoint x="559" y="407.9999999999998" as="targetPoint"/>
                        <Array as="points">
                            <mxPoint x="559" y="458"/>
                        </Array>
                    </mxGeometry>
                </mxCell>
                <mxCell id="gEINEeFETgo3wGrlNkR9-1" value="Auth" style="rounded=0;whiteSpace=wrap;html=1;strokeColor=#00FF00;" parent="8AJrhQcKqjRluQ4ktrU2-1" vertex="1">
                    <mxGeometry x="499" y="588" width="120" height="60" as="geometry"/>
                </mxCell>
                <mxCell id="gEINEeFETgo3wGrlNkR9-5" value="Não" style="edgeStyle=none;html=1;exitX=1;exitY=1;exitDx=0;exitDy=0;entryX=0.5;entryY=0;entryDx=0;entryDy=0;" parent="8AJrhQcKqjRluQ4ktrU2-1" source="gEINEeFETgo3wGrlNkR9-4" target="gEINEeFETgo3wGrlNkR9-1" edge="1">
                    <mxGeometry relative="1" as="geometry"/>
                </mxCell>
                <mxCell id="gEINEeFETgo3wGrlNkR9-8" value="Sim" style="edgeStyle=none;html=1;exitX=0;exitY=1;exitDx=0;exitDy=0;entryX=0.75;entryY=0;entryDx=0;entryDy=0;" parent="8AJrhQcKqjRluQ4ktrU2-1" source="gEINEeFETgo3wGrlNkR9-4" target="gEINEeFETgo3wGrlNkR9-9" edge="1">
                    <mxGeometry relative="1" as="geometry"/>
                </mxCell>
                <mxCell id="gEINEeFETgo3wGrlNkR9-4" value="Autenticado?" style="rhombus;whiteSpace=wrap;html=1;strokeColor=#00FF00;" parent="8AJrhQcKqjRluQ4ktrU2-1" vertex="1">
                    <mxGeometry x="419" y="458" width="80" height="80" as="geometry"/>
                </mxCell>
                <mxCell id="gEINEeFETgo3wGrlNkR9-9" value="Payload" style="swimlane;fontStyle=0;childLayout=stackLayout;horizontal=1;startSize=30;horizontalStack=0;resizeParent=1;resizeParentMax=0;resizeLast=0;collapsible=1;marginBottom=0;strokeColor=#FF0000;" parent="8AJrhQcKqjRluQ4ktrU2-1" vertex="1" collapsed="1">
                    <mxGeometry x="299" y="558" width="80" height="30" as="geometry">
                        <mxRectangle x="20" y="310" width="140" height="120" as="alternateBounds"/>
                    </mxGeometry>
                </mxCell>
                <mxCell id="gEINEeFETgo3wGrlNkR9-10" value="Phrase" style="text;strokeColor=none;fillColor=none;align=left;verticalAlign=middle;spacingLeft=4;spacingRight=4;overflow=hidden;points=[[0,0.5],[1,0.5]];portConstraint=eastwest;rotatable=0;" parent="gEINEeFETgo3wGrlNkR9-9" vertex="1">
                    <mxGeometry y="30" width="80" height="30" as="geometry"/>
                </mxCell>
                <mxCell id="gEINEeFETgo3wGrlNkR9-11" value="usr_key" style="text;strokeColor=none;fillColor=none;align=left;verticalAlign=middle;spacingLeft=4;spacingRight=4;overflow=hidden;points=[[0,0.5],[1,0.5]];portConstraint=eastwest;rotatable=0;" parent="gEINEeFETgo3wGrlNkR9-9" vertex="1">
                    <mxGeometry y="60" width="80" height="30" as="geometry"/>
                </mxCell>
                <mxCell id="gEINEeFETgo3wGrlNkR9-12" value="calls?" style="text;strokeColor=none;fillColor=none;align=left;verticalAlign=middle;spacingLeft=4;spacingRight=4;overflow=hidden;points=[[0,0.5],[1,0.5]];portConstraint=eastwest;rotatable=0;" parent="gEINEeFETgo3wGrlNkR9-9" vertex="1">
                    <mxGeometry y="90" width="80" height="30" as="geometry"/>
                </mxCell>
                <mxCell id="gEINEeFETgo3wGrlNkR9-19" style="edgeStyle=none;html=1;exitX=0.5;exitY=0;exitDx=0;exitDy=0;" parent="8AJrhQcKqjRluQ4ktrU2-1" source="gEINEeFETgo3wGrlNkR9-14" target="gEINEeFETgo3wGrlNkR9-18" edge="1">
                    <mxGeometry relative="1" as="geometry"/>
                </mxCell>
                <mxCell id="gEINEeFETgo3wGrlNkR9-14" value="Frase processada" style="shape=process;whiteSpace=wrap;html=1;backgroundOutline=1;strokeColor=#FF0000;" parent="8AJrhQcKqjRluQ4ktrU2-1" vertex="1">
                    <mxGeometry x="179" y="818" width="120" height="60" as="geometry"/>
                </mxCell>
                <mxCell id="gEINEeFETgo3wGrlNkR9-17" value="Sim" style="edgeStyle=none;html=1;exitX=0;exitY=1;exitDx=0;exitDy=0;entryX=0.5;entryY=0;entryDx=0;entryDy=0;" parent="8AJrhQcKqjRluQ4ktrU2-1" source="gEINEeFETgo3wGrlNkR9-15" target="gEINEeFETgo3wGrlNkR9-14" edge="1">
                    <mxGeometry relative="1" as="geometry"/>
                </mxCell>
                <mxCell id="gEINEeFETgo3wGrlNkR9-22" value="Não" style="edgeStyle=none;html=1;exitX=1;exitY=1;exitDx=0;exitDy=0;entryX=0;entryY=0;entryDx=15;entryDy=15;entryPerimeter=0;" parent="8AJrhQcKqjRluQ4ktrU2-1" source="gEINEeFETgo3wGrlNkR9-15" target="gEINEeFETgo3wGrlNkR9-21" edge="1">
                    <mxGeometry relative="1" as="geometry"/>
                </mxCell>
                <mxCell id="gEINEeFETgo3wGrlNkR9-15" value="Ainda há limite?" style="rhombus;whiteSpace=wrap;html=1;strokeColor=#FF0000;" parent="8AJrhQcKqjRluQ4ktrU2-1" vertex="1">
                    <mxGeometry x="299" y="708" width="80" height="80" as="geometry"/>
                </mxCell>
                <mxCell id="gEINEeFETgo3wGrlNkR9-20" style="edgeStyle=none;html=1;entryX=0;entryY=0.5;entryDx=0;entryDy=0;" parent="8AJrhQcKqjRluQ4ktrU2-1" source="gEINEeFETgo3wGrlNkR9-18" target="8AJrhQcKqjRluQ4ktrU2-3" edge="1">
                    <mxGeometry relative="1" as="geometry">
                        <mxPoint x="209" y="367.9999999999998" as="targetPoint"/>
                        <Array as="points">
                            <mxPoint x="209" y="388"/>
                        </Array>
                    </mxGeometry>
                </mxCell>
                <mxCell id="gEINEeFETgo3wGrlNkR9-18" value="Resultado&lt;br&gt;do&lt;br&gt;processo" style="shape=document;whiteSpace=wrap;html=1;boundedLbl=1;strokeColor=#FF0000;" parent="8AJrhQcKqjRluQ4ktrU2-1" vertex="1">
                    <mxGeometry x="149" y="658" width="120" height="80" as="geometry"/>
                </mxCell>
                <mxCell id="gEINEeFETgo3wGrlNkR9-23" style="edgeStyle=none;html=1;entryX=0;entryY=1;entryDx=0;entryDy=0;" parent="8AJrhQcKqjRluQ4ktrU2-1" source="gEINEeFETgo3wGrlNkR9-21" target="8AJrhQcKqjRluQ4ktrU2-3" edge="1">
                    <mxGeometry relative="1" as="geometry"/>
                </mxCell>
                <mxCell id="gEINEeFETgo3wGrlNkR9-21" value="Error" style="shape=card;whiteSpace=wrap;html=1;strokeColor=#FF0000;" parent="8AJrhQcKqjRluQ4ktrU2-1" vertex="1">
                    <mxGeometry x="399" y="798" width="80" height="100" as="geometry"/>
                </mxCell>
            </root>
        </mxGraphModel>
    </diagram>
    <diagram id="n7RkbG3rn15EFXHhjzxZ" name="Req">
        <mxGraphModel dx="648" dy="396" grid="1" gridSize="10" guides="1" tooltips="1" connect="1" arrows="1" fold="1" page="1" pageScale="1" pageWidth="827" pageHeight="1169" math="0" shadow="0">
            <root>
                <mxCell id="eAD2WTFLxDSHhCMgtckc-0"/>
                <mxCell id="eAD2WTFLxDSHhCMgtckc-1" parent="eAD2WTFLxDSHhCMgtckc-0"/>
                <mxCell id="eAD2WTFLxDSHhCMgtckc-2" value="" style="rounded=0;whiteSpace=wrap;html=1;strokeColor=#FFFF33;" parent="eAD2WTFLxDSHhCMgtckc-1" vertex="1">
                    <mxGeometry x="150" y="240" width="120" height="350" as="geometry"/>
                </mxCell>
                <mxCell id="N-Yolx7YyGDyTH1nOnrq-0" value="" style="rounded=0;whiteSpace=wrap;html=1;strokeColor=#00FF00;" parent="eAD2WTFLxDSHhCMgtckc-1" vertex="1">
                    <mxGeometry x="354" y="240" width="120" height="350" as="geometry"/>
                </mxCell>
                <mxCell id="N-Yolx7YyGDyTH1nOnrq-1" value="" style="rounded=0;whiteSpace=wrap;html=1;strokeColor=#FF0000;" parent="eAD2WTFLxDSHhCMgtckc-1" vertex="1">
                    <mxGeometry x="560" y="240" width="120" height="350" as="geometry"/>
                </mxCell>
                <mxCell id="szdqv-Fwq7QuH0Xn87p_-0" value="Legenda:" style="text;html=1;strokeColor=none;fillColor=none;align=center;verticalAlign=middle;whiteSpace=wrap;rounded=0;" parent="eAD2WTFLxDSHhCMgtckc-1" vertex="1">
                    <mxGeometry width="60" height="30" as="geometry"/>
                </mxCell>
                <mxCell id="szdqv-Fwq7QuH0Xn87p_-1" value="" style="whiteSpace=wrap;html=1;aspect=fixed;strokeColor=#FFFF33;" parent="eAD2WTFLxDSHhCMgtckc-1" vertex="1">
                    <mxGeometry x="10" y="31" width="20" height="20" as="geometry"/>
                </mxCell>
                <mxCell id="szdqv-Fwq7QuH0Xn87p_-2" value="" style="whiteSpace=wrap;html=1;aspect=fixed;strokeColor=#00FF00;" parent="eAD2WTFLxDSHhCMgtckc-1" vertex="1">
                    <mxGeometry x="10" y="70" width="20" height="20" as="geometry"/>
                </mxCell>
                <mxCell id="szdqv-Fwq7QuH0Xn87p_-3" value="" style="whiteSpace=wrap;html=1;aspect=fixed;strokeColor=#FF0000;" parent="eAD2WTFLxDSHhCMgtckc-1" vertex="1">
                    <mxGeometry x="10" y="110" width="20" height="20" as="geometry"/>
                </mxCell>
                <mxCell id="szdqv-Fwq7QuH0Xn87p_-4" value="Frontend" style="text;html=1;strokeColor=none;fillColor=none;align=center;verticalAlign=middle;whiteSpace=wrap;rounded=0;" parent="eAD2WTFLxDSHhCMgtckc-1" vertex="1">
                    <mxGeometry x="40" y="26" width="60" height="30" as="geometry"/>
                </mxCell>
                <mxCell id="szdqv-Fwq7QuH0Xn87p_-5" value="Auth Service" style="text;html=1;strokeColor=none;fillColor=none;align=center;verticalAlign=middle;whiteSpace=wrap;rounded=0;" parent="eAD2WTFLxDSHhCMgtckc-1" vertex="1">
                    <mxGeometry x="40" y="65" width="80" height="30" as="geometry"/>
                </mxCell>
                <mxCell id="szdqv-Fwq7QuH0Xn87p_-6" value="NLP-CORE" style="text;html=1;strokeColor=none;fillColor=none;align=center;verticalAlign=middle;whiteSpace=wrap;rounded=0;" parent="eAD2WTFLxDSHhCMgtckc-1" vertex="1">
                    <mxGeometry x="40" y="105" width="80" height="30" as="geometry"/>
                </mxCell>
                <mxCell id="szdqv-Fwq7QuH0Xn87p_-9" style="edgeStyle=none;html=1;exitX=1;exitY=0.5;exitDx=0;exitDy=0;" parent="eAD2WTFLxDSHhCMgtckc-1" source="szdqv-Fwq7QuH0Xn87p_-7" target="szdqv-Fwq7QuH0Xn87p_-8" edge="1">
                    <mxGeometry relative="1" as="geometry"/>
                </mxCell>
                <mxCell id="szdqv-Fwq7QuH0Xn87p_-7" value="Usuário autenticado&lt;br&gt;requisita processamento" style="rounded=1;whiteSpace=wrap;html=1;strokeColor=#000000;" parent="eAD2WTFLxDSHhCMgtckc-1" vertex="1">
                    <mxGeometry x="150" y="260" width="120" height="50" as="geometry"/>
                </mxCell>
                <mxCell id="szdqv-Fwq7QuH0Xn87p_-10" style="edgeStyle=none;html=1;entryX=-0.008;entryY=0.129;entryDx=0;entryDy=0;entryPerimeter=0;" parent="eAD2WTFLxDSHhCMgtckc-1" source="szdqv-Fwq7QuH0Xn87p_-8" target="N-Yolx7YyGDyTH1nOnrq-1" edge="1">
                    <mxGeometry relative="1" as="geometry"/>
                </mxCell>
                <mxCell id="szdqv-Fwq7QuH0Xn87p_-11" value="Valido" style="edgeLabel;html=1;align=center;verticalAlign=middle;resizable=0;points=[];" parent="szdqv-Fwq7QuH0Xn87p_-10" vertex="1" connectable="0">
                    <mxGeometry x="-0.4826" y="2" relative="1" as="geometry">
                        <mxPoint x="24" y="2" as="offset"/>
                    </mxGeometry>
                </mxCell>
                <mxCell id="szdqv-Fwq7QuH0Xn87p_-8" value="Serviço de autenticação checa validade de reqs" style="rounded=1;whiteSpace=wrap;html=1;strokeColor=#000000;" parent="eAD2WTFLxDSHhCMgtckc-1" vertex="1">
                    <mxGeometry x="354" y="260" width="120" height="50" as="geometry"/>
                </mxCell>
                <mxCell id="szdqv-Fwq7QuH0Xn87p_-17" style="edgeStyle=none;html=1;exitX=0.5;exitY=1;exitDx=0;exitDy=0;entryX=0.5;entryY=0;entryDx=0;entryDy=0;" parent="eAD2WTFLxDSHhCMgtckc-1" source="szdqv-Fwq7QuH0Xn87p_-12" target="szdqv-Fwq7QuH0Xn87p_-16" edge="1">
                    <mxGeometry relative="1" as="geometry"/>
                </mxCell>
                <mxCell id="szdqv-Fwq7QuH0Xn87p_-12" value="Processa o resultado" style="rounded=1;whiteSpace=wrap;html=1;strokeColor=#000000;" parent="eAD2WTFLxDSHhCMgtckc-1" vertex="1">
                    <mxGeometry x="560" y="255" width="120" height="60" as="geometry"/>
                </mxCell>
                <mxCell id="szdqv-Fwq7QuH0Xn87p_-20" style="edgeStyle=none;html=1;exitX=0;exitY=0.5;exitDx=0;exitDy=0;entryX=1;entryY=0.5;entryDx=0;entryDy=0;" parent="eAD2WTFLxDSHhCMgtckc-1" source="szdqv-Fwq7QuH0Xn87p_-16" target="szdqv-Fwq7QuH0Xn87p_-19" edge="1">
                    <mxGeometry relative="1" as="geometry"/>
                </mxCell>
                <mxCell id="szdqv-Fwq7QuH0Xn87p_-16" value="Prepara a resposta e envia ela para o callback com o parametro API KEY" style="rounded=1;whiteSpace=wrap;html=1;strokeColor=#000000;" parent="eAD2WTFLxDSHhCMgtckc-1" vertex="1">
                    <mxGeometry x="560" y="340" width="120" height="60" as="geometry"/>
                </mxCell>
                <mxCell id="szdqv-Fwq7QuH0Xn87p_-21" style="edgeStyle=none;html=1;entryX=1;entryY=0.371;entryDx=0;entryDy=0;entryPerimeter=0;" parent="eAD2WTFLxDSHhCMgtckc-1" source="szdqv-Fwq7QuH0Xn87p_-19" target="eAD2WTFLxDSHhCMgtckc-2" edge="1">
                    <mxGeometry relative="1" as="geometry"/>
                </mxCell>
                <mxCell id="szdqv-Fwq7QuH0Xn87p_-22" value="Resposta" style="edgeLabel;html=1;align=center;verticalAlign=middle;resizable=0;points=[];" parent="szdqv-Fwq7QuH0Xn87p_-21" vertex="1" connectable="0">
                    <mxGeometry x="0.4048" relative="1" as="geometry">
                        <mxPoint x="25" as="offset"/>
                    </mxGeometry>
                </mxCell>
                <mxCell id="szdqv-Fwq7QuH0Xn87p_-19" value="Recebe por callback, diminui as chamadas e devolve a mensagem" style="rounded=1;whiteSpace=wrap;html=1;strokeColor=#000000;" parent="eAD2WTFLxDSHhCMgtckc-1" vertex="1">
                    <mxGeometry x="354" y="340" width="120" height="60" as="geometry"/>
                </mxCell>
            </root>
        </mxGraphModel>
    </diagram>
</mxfile>